<svg fill="none" height="36" viewBox="0 0 36 36" width="36" xmlns="http://www.w3.org/2000/svg">
  <title>Avatar 16</title>
  <mask height="36" id="mask16" maskUnits="userSpaceOnUse" width="36" x="0" y="0">
    <rect fill="#FFFFFF" height="36" rx="72" width="36"/>
  </mask>
  <g mask="url(#mask16)">
    <rect fill="#00897b" height="36" width="36"/>
    <rect fill="#ffd600" height="60" rx="2" transform="rotate(55 18 18) translate(-4 -30)" width="8"/>
    <rect fill="#ffd600" height="60" rx="2" transform="rotate(55 18 18) translate(6 -30)" width="8"/>
    <rect fill="#ffd600" height="60" rx="2" transform="rotate(55 18 18) translate(16 -30)" width="8"/>
    <circle cx="32" cy="32" fill="#004d40" r="18"/>
    <g transform="translate(0 1) rotate(-5 18 18)">
      <line x1="10" y1="13" x2="15" y2="15" stroke="#ffffff" stroke-linecap="round" stroke-width="1.8"/>
      <line x1="26" y1="13" x2="21" y2="15" stroke="#ffffff" stroke-linecap="round" stroke-width="1.8"/>
      <rect fill="#ffffff" height="1.8" rx="0.9" width="5" x="10.5" y="16"/>
      <rect fill="#ffffff" height="1.8" rx="0.9" width="5" x="20.5" y="16"/>
      <path d="M12 23 Q18 19 24 23" fill="none" stroke="#ffffff" stroke-linecap="round" stroke-width="1.4"/>
    </g>
  </g>
</svg>
