<svg fill="none" height="36" viewBox="0 0 36 36" width="36" xmlns="http://www.w3.org/2000/svg">
  <title>Avatar 15</title>
  <mask height="36" id="mask15" maskUnits="userSpaceOnUse" width="36" x="0" y="0">
    <rect fill="#FFFFFF" height="36" rx="72" width="36"/>
  </mask>
  <g mask="url(#mask15)">
    <rect fill="#f8b500" height="36" width="36"/>
    <polygon fill="#1a1a2e" points="-4,0 40,0 30,20 6,20" transform="translate(0 -2)"/>
    <rect fill="#e94560" height="10" rx="0" transform="rotate(-8 18 18) translate(0 14)" width="50" x="-7"/>
    <g transform="translate(0 -1) rotate(-2 18 18)">
      <path d="M10 15 Q13 17 16 15" fill="#ffffff" stroke="none"/>
      <path d="M10 15 Q13 13 16 15" fill="none" stroke="#ffffff" stroke-linecap="round" stroke-width="1.3"/>
      <path d="M20 15 Q23 17 26 15" fill="#ffffff" stroke="none"/>
      <path d="M20 15 Q23 13 26 15" fill="none" stroke="#ffffff" stroke-linecap="round" stroke-width="1.3"/>
      <path d="M14 22 Q18 23 22 22" fill="none" stroke="#1a1a2e" stroke-linecap="round" stroke-width="1.2"/>
      <text font-family="sans-serif" font-size="5" fill="#1a1a2e" x="23" y="12" transform="rotate(10 25 11)">z</text>
      <text font-family="sans-serif" font-size="4" fill="#1a1a2e" x="25.5" y="9" transform="rotate(10 27 8)">z</text>
    </g>
  </g>
</svg>
